<svg width="15" height="15" viewBox="0 0 15 15" fill="none" xmlns="http://www.w3.org/2000/svg">
<path d="M1.82657 4.46071V13.344H13.1326V4.46071H10.7098V10.9213L7.47956 9.30613L4.24928 10.9213V4.46071H1.82657ZM1.82657 14.9591C1.3824 14.9591 1.00217 14.801 0.685874 14.4847C0.369575 14.1684 0.211426 13.7882 0.211426 13.344V3.26954C0.211426 3.08111 0.24171 2.8994 0.302278 2.72443C0.362845 2.54946 0.453697 2.38794 0.574833 2.23989L1.5843 1.00834C1.73235 0.819907 1.91742 0.675218 2.1395 0.574271C2.36158 0.473325 2.59376 0.422852 2.83603 0.422852H12.1231C12.3654 0.422852 12.5975 0.473325 12.8196 0.574271C13.0417 0.675218 13.2268 0.819907 13.3748 1.00834L14.3843 2.23989C14.5054 2.38794 14.5963 2.54946 14.6569 2.72443C14.7174 2.8994 14.7477 3.08111 14.7477 3.26954V13.344C14.7477 13.7882 14.5896 14.1684 14.2733 14.4847C13.957 14.801 13.5767 14.9591 13.1326 14.9591H1.82657ZM2.1496 2.84556H12.8095L12.1231 2.03799H2.83603L2.1496 2.84556ZM5.86442 4.46071V8.29667L7.47956 7.4891L9.09471 8.29667V4.46071H5.86442Z" fill="#153356"/>
</svg>
