<svg width="20" height="20" viewBox="0 0 20 20" fill="none" xmlns="http://www.w3.org/2000/svg">
<mask id="mask0_996_21192" style="mask-type:alpha" maskUnits="userSpaceOnUse" x="0" y="0" width="20" height="20">
<rect x="0.211304" width="19.3817" height="19.3817" fill="#D9D9D9"/>
</mask>
<g mask="url(#mask0_996_21192)">
<path d="M4.24918 17.7667C3.80501 17.7667 3.42478 17.6085 3.10848 17.2922C2.79218 16.9759 2.63403 16.5957 2.63403 16.1515V4.84552C2.63403 4.40135 2.79218 4.02112 3.10848 3.70482C3.42478 3.38853 3.80501 3.23038 4.24918 3.23038H5.05675V1.61523H6.67189V3.23038H13.1325V1.61523H14.7476V3.23038H15.5552C15.9993 3.23038 16.3796 3.38853 16.6959 3.70482C17.0122 4.02112 17.1703 4.40135 17.1703 4.84552V16.1515C17.1703 16.5957 17.0122 16.9759 16.6959 17.2922C16.3796 17.6085 15.9993 17.7667 15.5552 17.7667H4.24918ZM4.24918 16.1515H15.5552V8.0758H4.24918V16.1515ZM4.24918 6.46066H15.5552V4.84552H4.24918V6.46066Z" fill="#153356"/>
</g>
</svg>
