<svg width="240" height="50" viewBox="0 0 240 50" fill="none" xmlns="http://www.w3.org/2000/svg">
<path d="M29.4395 22.252H17.1055V13.9902C17.1055 11.5879 16.9688 10.0938 16.6953 9.50781C16.4414 8.90234 15.8652 8.59961 14.9668 8.59961C13.9512 8.59961 13.3066 8.96094 13.0332 9.68359C12.7598 10.4063 12.623 11.9688 12.623 14.3711V36.4023C12.623 38.707 12.7598 40.2109 13.0332 40.9141C13.3066 41.6172 13.9219 41.9688 14.8789 41.9688C15.7969 41.9688 16.3926 41.6172 16.666 40.9141C16.959 40.2109 17.1055 38.5605 17.1055 35.9629V30.0156H29.4395V31.8613C29.4395 36.7637 29.0879 40.2402 28.3848 42.291C27.7012 44.3418 26.168 46.1387 23.7852 47.6816C21.4219 49.2246 18.502 49.9961 15.0254 49.9961C11.4121 49.9961 8.43359 49.3418 6.08984 48.0332C3.74609 46.7246 2.19336 44.918 1.43164 42.6133C0.669922 40.2891 0.289062 36.8027 0.289062 32.1543V18.2969C0.289062 14.8789 0.40625 12.3203 0.640625 10.6211C0.875 8.90234 1.56836 7.25195 2.7207 5.66992C3.89258 4.08789 5.50391 2.84766 7.55469 1.94922C9.625 1.03125 11.998 0.572266 14.6738 0.572266C18.3066 0.572266 21.3047 1.27539 23.668 2.68164C26.0312 4.08789 27.584 5.8457 28.3262 7.95508C29.0684 10.0449 29.4395 13.3066 29.4395 17.7402V22.252ZM62.2227 1.56836V49H49.8887V29.0781H46.1973V49H33.8633V1.56836H46.1973V18.5312H49.8887V1.56836H62.2227ZM67.2031 1.56836H87.7695V11.0605H79.5371V20.0547H87.2422V29.0781H79.5371V39.5078H88.5898V49H67.2031V1.56836ZM113.463 1.56836L120.523 49H107.896L107.281 40.4746H102.857L102.125 49H89.3516L95.6211 1.56836H113.463ZM106.93 32.0664C106.305 26.6953 105.68 20.0645 105.055 12.1738C103.805 21.2363 103.023 27.8672 102.711 32.0664H106.93ZM122.633 1.56836H135.055C138.414 1.56836 140.992 1.83203 142.789 2.35938C144.605 2.88672 145.963 3.64844 146.861 4.64453C147.779 5.64062 148.395 6.85156 148.707 8.27734C149.039 9.68359 149.205 11.8711 149.205 14.8398V18.9707C149.205 21.998 148.893 24.2051 148.268 25.5918C147.643 26.9785 146.49 28.043 144.811 28.7852C143.15 29.5273 140.973 29.8984 138.277 29.8984H134.967V49H122.633V1.56836ZM134.967 9.68359V21.7539C135.318 21.7734 135.621 21.7832 135.875 21.7832C137.008 21.7832 137.789 21.5098 138.219 20.9629C138.668 20.3965 138.893 19.2344 138.893 17.4766V13.5801C138.893 11.959 138.639 10.9043 138.131 10.416C137.623 9.92773 136.568 9.68359 134.967 9.68359ZM175.689 1.56836V39.5078H183.189V49H163.355V1.56836H175.689ZM215.006 22.252H202.672V13.9902C202.672 11.5879 202.535 10.0938 202.262 9.50781C202.008 8.90234 201.432 8.59961 200.533 8.59961C199.518 8.59961 198.873 8.96094 198.6 9.68359C198.326 10.4063 198.189 11.9688 198.189 14.3711V36.4023C198.189 38.707 198.326 40.2109 198.6 40.9141C198.873 41.6172 199.488 41.9688 200.445 41.9688C201.363 41.9688 201.959 41.6172 202.232 40.9141C202.525 40.2109 202.672 38.5605 202.672 35.9629V30.0156H215.006V31.8613C215.006 36.7637 214.654 40.2402 213.951 42.291C213.268 44.3418 211.734 46.1387 209.352 47.6816C206.988 49.2246 204.068 49.9961 200.592 49.9961C196.979 49.9961 194 49.3418 191.656 48.0332C189.312 46.7246 187.76 44.918 186.998 42.6133C186.236 40.2891 185.855 36.8027 185.855 32.1543V18.2969C185.855 14.8789 185.973 12.3203 186.207 10.6211C186.441 8.90234 187.135 7.25195 188.287 5.66992C189.459 4.08789 191.07 2.84766 193.121 1.94922C195.191 1.03125 197.564 0.572266 200.24 0.572266C203.873 0.572266 206.871 1.27539 209.234 2.68164C211.598 4.08789 213.15 5.8457 213.893 7.95508C214.635 10.0449 215.006 13.3066 215.006 17.7402V22.252ZM231.764 1.56836V39.5078H239.264V49H219.43V1.56836H231.764Z" fill="#003E8B"/>
</svg>
