<svg width="15" height="15" viewBox="0 0 15 15" fill="none" xmlns="http://www.w3.org/2000/svg">
<path d="M1.28309 14.9996C1.61145 14.9996 1.93957 14.8742 2.19012 14.6237L14.6242 2.18997C15.1253 1.68891 15.1253 0.876386 14.6242 0.375795C14.1231 -0.125265 13.3112 -0.125265 12.8099 0.375795L0.37582 12.8095C-0.125274 13.3105 -0.125274 14.1231 0.37582 14.6237C0.626601 14.8742 0.954962 14.9996 1.28309 14.9996Z" fill="#D0D6DC"/>
<path d="M13.7171 15.0003C14.0455 15.0003 14.3736 14.8749 14.6242 14.6244C15.1253 14.1238 15.1253 13.3115 14.6242 12.8102L2.19012 0.376772C1.68902 -0.124288 0.877149 -0.124288 0.37582 0.376772C-0.125274 0.877363 -0.125274 1.68965 0.37582 2.19095L12.8101 14.6244C13.0607 14.8749 13.3888 15.0003 13.7171 15.0003Z" fill="#D0D6DC"/>
</svg>
