<svg width="25" height="25" viewBox="0 0 25 25" fill="none" xmlns="http://www.w3.org/2000/svg">
<mask id="mask0_201_33551" style="mask-type:alpha" maskUnits="userSpaceOnUse" x="0" y="0" width="25" height="25">
<rect width="25" height="25" fill="#A9A9A9"/>
</mask>
<g mask="url(#mask0_201_33551)">
<path d="M4.16146 20.8327C3.58854 20.8327 3.09826 20.6289 2.69063 20.2212C2.28229 19.8129 2.07812 19.3223 2.07812 18.7493V6.24935C2.07812 5.67643 2.28229 5.18615 2.69063 4.77852C3.09826 4.37018 3.58854 4.16602 4.16146 4.16602H20.8281C21.401 4.16602 21.8917 4.37018 22.3 4.77852C22.7076 5.18615 22.9115 5.67643 22.9115 6.24935V18.7493C22.9115 19.3223 22.7076 19.8129 22.3 20.2212C21.8917 20.6289 21.401 20.8327 20.8281 20.8327H4.16146ZM4.16146 12.4993H20.8281V8.33268H4.16146V12.4993Z" fill="#A9A9A9"/>
</g>
</svg>
