<svg fill="none" height="24" viewBox="0 0 24 24" width="24" xmlns="http://www.w3.org/2000/svg"><path clip-rule="evenodd" d="m9.76482 2.99753c1.19248-1.33202 3.27788-1.33202 4.47038 0l.7007.78276c.2026.22629.497.34825.8003.33148l1.049-.05799c1.7851-.09869 3.2597 1.37596 3.161 3.16102l-.058 1.04901c-.0167.30325.1052.59768.3315.80026l.7828.70075c1.332 1.19248 1.332 3.27788 0 4.47038l-.7828.7007c-.2263.2026-.3482.497-.3315.8003l.058 1.049c.0987 1.7851-1.3759 3.2597-3.161 3.161l-1.049-.058c-.3033-.0167-.5977.1052-.8003.3315l-.7007.7828c-1.1925 1.332-3.2779 1.332-4.47038 0l-.70075-.7828c-.20257-.2263-.49701-.3482-.80026-.3315l-1.049.058c-1.78507.0987-3.25971-1.3759-3.16103-3.161l.05799-1.049c.01677-.3033-.10519-.5977-.33147-.8003l-.78277-.7007c-1.33201-1.1925-1.33201-3.2779 0-4.47038l.78277-.70075c.22628-.20258.34824-.49701.33147-.80026l-.05799-1.04901c-.09868-1.78506 1.37596-3.25971 3.16103-3.16102l1.049.05799c.30325.01677.59769-.10519.80026-.33148zm5.94228 5.29536c.3905.39053.3905 1.02369 0 1.41422l-5.99999 5.99999c-.39053.3905-1.02369.3905-1.41422 0-.39052-.3905-.39052-1.0237 0-1.4142l6.00001-6.00001c.3905-.39052 1.0237-.39052 1.4142 0zm-6.2071-.29289c-.82843 0-1.5.67157-1.5 1.5v.01c0 .8284.67157 1.5 1.5 1.5h.01c.8284 0 1.5-.6716 1.5-1.5v-.01c0-.82843-.6716-1.5-1.5-1.5zm5 5c-.8284 0-1.5.6716-1.5 1.5v.01c0 .8284.6716 1.5 1.5 1.5h.01c.8284 0 1.5-.6716 1.5-1.5v-.01c0-.8284-.6716-1.5-1.5-1.5z" fill="#161313" fill-rule="evenodd"/></svg>