<svg width="20" height="20" viewBox="0 0 20 20" fill="none" xmlns="http://www.w3.org/2000/svg">
<path d="M10 0C4.477 0 0 4.477 0 10C0 15.523 4.477 20 10 20C15.523 20 20 15.523 20 10C20 4.477 15.523 0 10 0ZM12.825 12.336C12.825 14.664 10.913 14.978 10.575 15.02V16.35H9.573V15.02C9.261 14.977 7.162 14.747 7.162 11.855H9.052C9.052 13.563 9.933 13.492 10.067 13.492C10.214 13.492 10.935 13.465 10.935 12.349C10.935 10.12 7.476 11.109 7.476 7.768C7.476 5.478 9.374 5.121 9.713 5.078V3.65H10.721V5.106C11.042 5.167 12.838 5.577 12.838 8.204H10.948C10.948 6.831 10.365 6.615 10.12 6.615C9.986 6.615 9.365 6.65 9.365 7.777C9.366 9.743 12.825 9.13 12.825 12.336Z" fill="#181A1C"/>
</svg>
