<svg width="21" height="21" viewBox="0 0 21 21" fill="none" xmlns="http://www.w3.org/2000/svg">
<mask id="mask0_996_21186" style="mask-type:alpha" maskUnits="userSpaceOnUse" x="0" y="0" width="21" height="21">
<rect width="20.5931" height="20.5931" fill="#D9D9D9"/>
</mask>
<g mask="url(#mask0_996_21186)">
<path d="M10.297 14.137C11.7127 12.9929 12.7817 11.8918 13.5039 10.8335C14.2261 9.77526 14.5872 8.78136 14.5872 7.85181C14.5872 7.05097 14.4406 6.36811 14.1474 5.80323C13.8543 5.23835 13.4932 4.78073 13.0642 4.43036C12.6351 4.07999 12.1704 3.82616 11.6698 3.66885C11.1693 3.51154 10.7117 3.43289 10.297 3.43289C9.88224 3.43289 9.42461 3.51154 8.92409 3.66885C8.42356 3.82616 7.95879 4.07999 7.52977 4.43036C7.10074 4.78073 6.73965 5.23835 6.44649 5.80323C6.15332 6.36811 6.00674 7.05097 6.00674 7.85181C6.00674 8.78136 6.36783 9.77526 7.09002 10.8335C7.81221 11.8918 8.88119 12.9929 10.297 14.137ZM10.297 16.3035C8.28055 14.8163 6.7754 13.3719 5.7815 11.9704C4.7876 10.569 4.29065 9.19608 4.29065 7.85181C4.29065 6.83646 4.47298 5.94624 4.83765 5.18115C5.20232 4.41606 5.67067 3.7761 6.2427 3.26128C6.81473 2.74645 7.45826 2.36033 8.1733 2.10292C8.88834 1.8455 9.59622 1.7168 10.297 1.7168C10.9977 1.7168 11.7056 1.8455 12.4206 2.10292C13.1357 2.36033 13.7792 2.74645 14.3512 3.26128C14.9232 3.7761 15.3916 4.41606 15.7563 5.18115C16.1209 5.94624 16.3033 6.83646 16.3033 7.85181C16.3033 9.19608 15.8063 10.569 14.8124 11.9704C13.8185 13.3719 12.3134 14.8163 10.297 16.3035ZM10.297 9.43919C10.7689 9.43919 11.1729 9.27116 11.5089 8.93509C11.845 8.59903 12.013 8.19503 12.013 7.72311C12.013 7.25118 11.845 6.84719 11.5089 6.51112C11.1729 6.17505 10.7689 6.00702 10.297 6.00702C9.82503 6.00702 9.42104 6.17505 9.08497 6.51112C8.7489 6.84719 8.58087 7.25118 8.58087 7.72311C8.58087 8.19503 8.7489 8.59903 9.08497 8.93509C9.42104 9.27116 9.82503 9.43919 10.297 9.43919ZM4.29065 18.8777V17.1616H16.3033V18.8777H4.29065Z" fill="#153356"/>
</g>
</svg>
