<svg width="21" height="22" viewBox="0 0 21 22" fill="none" xmlns="http://www.w3.org/2000/svg">
<path d="M16.6934 10.3848C14.3189 10.3848 12.3867 12.317 12.3867 14.6914C12.3867 15.598 12.6661 16.4656 13.202 17.21L16.2013 21.2537C16.3172 21.4087 16.4999 21.5 16.6934 21.5H16.694C16.8874 21.5 17.0701 21.4081 17.186 21.253L20.3067 17.0322C20.7603 16.3352 21 15.5259 21 14.6914C21 12.317 19.0678 10.3848 16.6934 10.3848ZM16.6934 16.5371C15.6756 16.5371 14.8477 15.7092 14.8477 14.6914C14.8477 13.6736 15.6756 12.8457 16.6934 12.8457C17.7111 12.8457 18.5391 13.6736 18.5391 14.6914C18.5391 15.7092 17.7111 16.5371 16.6934 16.5371Z" fill="#A9A9A9"/>
<path d="M0.931875 0.587546C0.741398 0.473973 0.505313 0.470405 0.311842 0.579753C0.118945 0.689059 0 0.893358 0 1.11505V13.4607C0 13.677 0.113572 13.8771 0.298594 13.9883L6.19336 17.5005V3.71995L0.931875 0.587546Z" fill="#A9A9A9"/>
<path d="M19.4709 4.27906L13.6172 0.766602V10.0915C14.4978 9.50071 15.5555 9.15421 16.6934 9.15421C17.8312 9.15421 18.8889 9.50071 19.7695 10.0915V4.80656C19.7695 4.59028 19.656 4.39021 19.4709 4.27906Z" fill="#A9A9A9"/>
<path d="M12.3867 0.766602L7.42383 3.71997V17.5006L11.2006 15.2591C11.1812 15.0706 11.1562 14.8828 11.1562 14.6913C11.1562 13.3863 11.6288 12.2013 12.3867 11.2539V0.766602Z" fill="#A9A9A9"/>
</svg>
