<svg width="19" height="19" viewBox="0 0 19 19" fill="none" xmlns="http://www.w3.org/2000/svg">
<path d="M12.625 18.875L6.375 16.6875L1.53125 18.5625C1.18403 18.7014 0.862847 18.6623 0.567708 18.4453C0.272569 18.2283 0.125 17.9375 0.125 17.5729V2.98958C0.125 2.76389 0.190104 2.56424 0.320312 2.39062C0.450521 2.21701 0.628472 2.08681 0.854167 2L6.375 0.125L12.625 2.3125L17.4687 0.4375C17.816 0.298611 18.1372 0.337674 18.4323 0.554687C18.7274 0.771701 18.875 1.0625 18.875 1.42708V16.0104C18.875 16.2361 18.8099 16.4358 18.6797 16.6094C18.5495 16.783 18.3715 16.9132 18.1458 17L12.625 18.875ZM11.5833 16.3229V4.13542L7.41667 2.67708V14.8646L11.5833 16.3229Z" fill="#003E8B"/>
</svg>
