<svg width="18" height="22" viewBox="0 0 18 22" fill="none" xmlns="http://www.w3.org/2000/svg">
<path d="M0.199219 18.3996V15.7496H2.34922V9.27461C2.34922 7.77461 2.79089 6.42861 3.67422 5.23661C4.55755 4.04528 5.72422 3.26628 7.17422 2.89961V2.29961C7.17422 1.78294 7.35355 1.34961 7.71222 0.999609C8.07022 0.649609 8.49922 0.474609 8.99922 0.474609C9.49922 0.474609 9.92855 0.649609 10.2872 0.999609C10.6452 1.34961 10.8242 1.78294 10.8242 2.29961V2.89961C12.2742 3.26628 13.4409 4.04128 14.3242 5.22461C15.2076 6.40794 15.6492 7.75794 15.6492 9.27461V15.7496H17.8242V18.3996H0.199219ZM9.02422 21.4746C8.42422 21.4746 7.91189 21.2663 7.48722 20.8496C7.06189 20.4329 6.84922 19.9246 6.84922 19.3246H11.1742C11.1742 19.9246 10.9619 20.4329 10.5372 20.8496C10.1119 21.2663 9.60755 21.4746 9.02422 21.4746Z" fill="#212121"/>
</svg>
