<svg width="26" height="26" viewBox="0 0 26 26" fill="none" xmlns="http://www.w3.org/2000/svg">
<circle cx="13" cy="13" r="12.5" fill="white" stroke="#197B48"/>
<mask id="mask0_711_238" style="mask-type:alpha" maskUnits="userSpaceOnUse" x="6" y="4" width="15" height="15">
<rect x="6" y="4" width="15" height="15" fill="#912CC6"/>
</mask>
<g mask="url(#mask0_711_238)">
<path d="M7.25 19.0006V16.5006H19.75V19.0006H7.25ZM8.5 15.2506V12.9069L14.1562 7.2506L16.5 9.59435L10.8438 15.2506H8.5ZM17.2031 8.90685L14.8594 6.5631L15.9844 5.4381C16.099 5.3131 16.2448 5.2531 16.4219 5.2581C16.599 5.26352 16.7448 5.32352 16.8594 5.4381L18.3281 6.90685C18.4427 7.02143 18.5 7.16477 18.5 7.33685C18.5 7.50852 18.4427 7.65685 18.3281 7.78185L17.2031 8.90685Z" fill="#197B48"/>
</g>
</svg>
