<svg width="44" height="44" viewBox="0 0 44 44" fill="none" xmlns="http://www.w3.org/2000/svg">
<mask id="mask0_996_20482" style="mask-type:alpha" maskUnits="userSpaceOnUse" x="-1" y="0" width="45" height="44">
<rect x="-0.000244141" width="44" height="44" fill="#D9D9D9"/>
</mask>
<g mask="url(#mask0_996_20482)">
<path d="M21.9998 22.0007C19.9831 22.0007 18.2567 21.2826 16.8206 19.8465C15.3845 18.4104 14.6665 16.684 14.6665 14.6673C14.6665 12.6507 15.3845 10.9243 16.8206 9.48815C18.2567 8.05204 19.9831 7.33398 21.9998 7.33398C24.0165 7.33398 25.7429 8.05204 27.179 9.48815C28.6151 10.9243 29.3331 12.6507 29.3331 14.6673C29.3331 16.684 28.6151 18.4104 27.179 19.8465C25.7429 21.2826 24.0165 22.0007 21.9998 22.0007ZM7.33313 36.6673V31.534C7.33313 30.4951 7.60049 29.5402 8.13521 28.6694C8.66994 27.7986 9.38035 27.134 10.2665 26.6756C12.1609 25.7284 14.0859 25.018 16.0415 24.5444C17.997 24.0708 19.9831 23.834 21.9998 23.834C24.0165 23.834 26.0026 24.0708 27.9581 24.5444C29.9137 25.018 31.8387 25.7284 33.7331 26.6756C34.6192 27.134 35.3297 27.7986 35.8644 28.6694C36.3991 29.5402 36.6665 30.4951 36.6665 31.534V36.6673H7.33313Z" fill="#D4ECDD"/>
</g>
</svg>
