<svg width="22" height="24" viewBox="0 0 22 24" fill="none" xmlns="http://www.w3.org/2000/svg">
<mask id="mask0_192_29460" style="mask-type:alpha" maskUnits="userSpaceOnUse" x="0" y="0" width="22" height="24">
<rect width="22" height="24" fill="#A9A9A9"/>
</mask>
<g mask="url(#mask0_192_29460)">
<path d="M16.7057 20.9999C15.9467 20.9999 14.8805 20.7319 13.2839 19.8614C11.3424 18.7989 9.84065 17.818 7.90965 15.9385C6.04786 14.1227 5.14185 12.9471 3.87383 10.6954C2.44133 8.15293 2.68552 6.82024 2.95849 6.25066C3.28356 5.56989 3.7634 5.16272 4.38361 4.75859C4.73588 4.53335 5.10867 4.34027 5.49726 4.18179C5.53614 4.16548 5.5723 4.14992 5.60458 4.13588C5.79705 4.05126 6.08869 3.92337 6.45809 4.05998C6.70462 4.1503 6.9247 4.3351 7.26922 4.66713C7.97575 5.34714 8.94125 6.8616 9.29743 7.60536C9.53657 8.10664 9.69483 8.43754 9.69522 8.80866C9.69522 9.24315 9.47124 9.57822 9.19944 9.93985C9.1485 10.0078 9.09795 10.0727 9.04896 10.1357C8.75305 10.5151 8.68811 10.6248 8.73089 10.8206C8.8176 11.2141 9.46425 12.3855 10.527 13.4203C11.5897 14.4552 12.7554 15.0464 13.1602 15.1306C13.3694 15.1742 13.4841 15.1082 13.8854 14.8092C13.943 14.7663 14.0021 14.7219 14.0639 14.6775C14.4784 14.3766 14.8058 14.1637 15.2405 14.1637H15.2429C15.6212 14.1637 15.9451 14.3239 16.4817 14.588C17.1816 14.9325 18.7802 15.8626 19.4813 16.5529C19.8223 16.8883 20.0124 17.1023 20.1054 17.3425C20.2453 17.7042 20.1135 17.9876 20.0276 18.1774C20.0132 18.2089 19.9973 18.2434 19.9805 18.2817C19.8169 18.6603 19.6178 19.0233 19.386 19.3662C18.9727 19.9696 18.5539 20.4367 17.8547 20.7543C17.4957 20.9201 17.1028 21.004 16.7057 20.9999Z" fill="#A9A9A9"/>
</g>
</svg>
