<svg width="18" height="19" viewBox="0 0 18 19" fill="none" xmlns="http://www.w3.org/2000/svg">
<path d="M16.6 18.6406L10.3 12.3406C9.8 12.7406 9.225 13.0573 8.575 13.2906C7.925 13.524 7.23333 13.6406 6.5 13.6406C4.68333 13.6406 3.14583 13.0115 1.8875 11.7531C0.629167 10.4948 0 8.95729 0 7.14062C0 5.32396 0.629167 3.78646 1.8875 2.52813C3.14583 1.26979 4.68333 0.640625 6.5 0.640625C8.31667 0.640625 9.85417 1.26979 11.1125 2.52813C12.3708 3.78646 13 5.32396 13 7.14062C13 7.87396 12.8833 8.56562 12.65 9.21562C12.4167 9.86562 12.1 10.4406 11.7 10.9406L18 17.2406L16.6 18.6406ZM6.5 11.6406C7.75 11.6406 8.8125 11.2031 9.6875 10.3281C10.5625 9.45312 11 8.39062 11 7.14062C11 5.89062 10.5625 4.82812 9.6875 3.95312C8.8125 3.07812 7.75 2.64062 6.5 2.64062C5.25 2.64062 4.1875 3.07812 3.3125 3.95312C2.4375 4.82812 2 5.89062 2 7.14062C2 8.39062 2.4375 9.45312 3.3125 10.3281C4.1875 11.2031 5.25 11.6406 6.5 11.6406Z" fill="#1C3454"/>
</svg>
