<svg width="19" height="19" viewBox="0 0 19 19" fill="none" xmlns="http://www.w3.org/2000/svg">
<path fill-rule="evenodd" clip-rule="evenodd" d="M10.5118 2.38354V3.18692H8.74475V2.38354H10.5118ZM9.62784 8.10725L14.3914 9.53241L16.5101 10.1365L15.5207 13.3305C15.1438 13.138 14.8024 12.8828 14.511 12.5758L13.1823 11.1808L11.8537 12.5696C11.5789 12.8854 11.243 13.1421 10.8661 13.3243C10.4783 13.5128 10.058 13.6255 9.62784 13.6565C9.20367 13.626 8.78901 13.516 8.40551 13.3323C8.03178 13.1541 7.69749 12.9029 7.42233 12.5936L6.09371 11.2047L4.76509 12.5936C4.47185 12.8968 4.1307 13.1496 3.75534 13.342L2.75976 10.1542L4.88555 9.51381L9.62784 8.10725ZM12.2851 0.771484H6.9706V3.18692H4.31336C3.85207 3.18548 3.40645 3.3542 3.0618 3.66079C2.72964 3.96195 2.54186 4.37205 2.54009 4.79898V8.51823L1.39748 8.8557C1.28543 8.8873 1.18029 8.93957 1.08746 9.00982C0.997622 9.07772 0.922323 9.16296 0.866027 9.26049C0.815145 9.35176 0.784109 9.45276 0.774951 9.55685C0.765793 9.66095 0.778718 9.76581 0.812882 9.86457L2.50023 15.2384H2.54009C3.21788 15.2145 3.88454 15.059 4.50291 14.7805C5.11407 14.5032 5.65438 14.1126 6.08751 13.6317C6.52692 14.124 7.0638 14.5197 7.66414 14.7938C8.28188 15.0765 8.94898 15.2357 9.62784 15.2623C10.3048 15.2385 10.9706 15.083 11.588 14.8044C12.1885 14.5349 12.7268 14.144 13.1691 13.6565C13.6126 14.1441 14.1521 14.5349 14.7537 14.8044C15.3717 15.0828 16.0381 15.2384 16.7156 15.2623H16.7555L18.4295 9.88848C18.4619 9.78958 18.474 9.68512 18.4648 9.58143C18.4557 9.47775 18.4256 9.377 18.3764 9.28529C18.3207 9.18731 18.2457 9.10171 18.1558 9.03374C18.0628 8.96345 17.9573 8.91145 17.8449 8.8805L16.7156 8.54215V4.79898C16.7127 4.58338 16.6648 4.37077 16.575 4.17476C16.4852 3.97876 16.3553 3.80369 16.1939 3.66079C15.8497 3.35461 15.4048 3.18591 14.9441 3.18692H12.2869V0.771484H12.2851ZM4.31336 8.0169V4.79898H14.9423V7.99298L9.62784 6.41104L4.31336 8.0169ZM13.1691 15.8664C12.1128 16.5445 10.883 16.9029 9.62784 16.8983C8.37294 16.9027 7.1435 16.5444 6.08751 15.8664C5.02269 16.5278 3.7936 16.877 2.54009 16.8744H0.773024V18.4864H2.54009C3.7662 18.4795 4.97631 18.2076 6.08751 17.6893C7.19792 18.2013 8.40593 18.4672 9.62873 18.4687C10.8599 18.4687 12.0734 18.2012 13.1691 17.6893C14.2793 18.2104 15.49 18.4825 16.7165 18.4864H18.4835V16.8744H16.7165C15.4575 16.8615 14.2277 16.493 13.1691 15.8115V15.8664Z" fill="#153356"/>
</svg>
