<svg width="24" height="24" viewBox="0 0 24 24" fill="none" xmlns="http://www.w3.org/2000/svg">
<path d="M13.8058 15.559C14.0917 15.5591 14.2326 15.5828 14.4143 15.6939C14.6224 15.8212 14.8826 16.0631 15.3721 16.5503L15.3727 16.5509L16.1836 17.3524L16.6086 17.7725L16.6094 17.1749L16.6187 9.76884L16.6187 9.76868L16.6327 2.42324L16.7353 2.20663L16.736 2.20509C16.9258 1.79738 17.2314 1.52855 17.6811 1.3757C17.7833 1.34174 17.9558 1.3271 18.1529 1.34383C18.3471 1.36033 18.5319 1.40448 18.6562 1.46266C18.9321 1.59713 19.215 1.87866 19.36 2.1677C19.3603 2.16821 19.3605 2.16872 19.3608 2.16923L19.461 2.37727L19.475 9.74524L19.475 9.7454L19.4844 17.1749L19.4851 17.7725L19.9101 17.3524L20.7211 16.5509L20.7221 16.5498C20.9396 16.3323 21.159 16.1245 21.3359 15.9654C21.4245 15.8857 21.501 15.8196 21.5604 15.771C21.6125 15.7284 21.64 15.7091 21.6484 15.7033C21.6508 15.7015 21.6516 15.701 21.6509 15.7013C21.9231 15.5652 22.2741 15.5144 22.5575 15.5726L22.5606 15.5733L22.5606 15.5732C23.6251 15.7781 24.0937 16.9869 23.4449 17.8388L23.443 17.8413L23.443 17.8413L23.4427 17.8417C23.4425 17.842 23.4421 17.8424 23.4416 17.8431L23.4375 17.8482L23.423 17.8653C23.4107 17.8796 23.3945 17.8978 23.3743 17.9202C23.3338 17.9648 23.2794 18.0232 23.2124 18.0941C23.0786 18.2356 22.8969 18.424 22.6803 18.6459C22.2472 19.0895 21.6762 19.6651 21.0723 20.2643L21.0722 20.2645C21.0017 20.3346 20.9333 20.4026 20.8669 20.4686C19.7349 21.5946 19.1851 22.1415 18.8348 22.4127C18.6559 22.5512 18.5498 22.6007 18.4607 22.6233C18.3695 22.6464 18.2805 22.6469 18.1106 22.6478C18.0974 22.6479 18.0837 22.648 18.0695 22.6481C18.0692 22.6481 18.069 22.6481 18.0687 22.6481L13.8058 15.559ZM13.8058 15.559C13.5659 15.5612 13.3901 15.5915 13.2395 15.6526C13.0895 15.7134 12.9478 15.8116 12.7862 15.9733C12.6238 16.1356 12.5249 16.2772 12.4643 16.4266C12.4036 16.5763 12.3744 16.751 12.3766 16.9895H12.3766V16.9918C12.3766 17.0169 12.3765 17.0402 12.3764 17.0618C12.376 17.2049 12.3758 17.2768 12.3959 17.3552C12.4166 17.436 12.4649 17.5389 12.6105 17.7235C12.8962 18.0856 13.4829 18.6742 14.7057 19.9011C14.7644 19.9601 14.8247 20.0205 14.8865 20.0825L13.8058 15.559Z" fill="#153356" stroke="#FAFAFA" stroke-width="0.5"/>
<path d="M14.5156 7.06216L7.88958 7.05313L7.88941 7.05313L1.06595 7.03918L0.89883 6.9574C0.473087 6.74191 0.218362 6.28382 0.262681 5.86223L14.5156 7.06216ZM14.5156 7.06216V5.97656V4.8908L7.91268 4.89531H7.9125C4.97076 4.89531 3.25067 4.89883 2.24559 4.90936C1.74257 4.91463 1.42156 4.92164 1.21704 4.93066C1.11458 4.93519 1.04475 4.94008 0.997505 4.94507C0.958571 4.94918 0.943318 4.9526 0.941449 4.9529C0.6054 5.07474 0.304824 5.46429 0.262694 5.86211L14.5156 7.06216Z" fill="#153356" stroke="#FAFAFA" stroke-width="0.5"/>
<path d="M14.5156 12.4059L7.88957 12.3969L14.5156 12.4059ZM14.5156 12.4059V11.3203V10.2344M0.999785 10.2883C0.540417 10.458 0.25 10.8671 0.25 11.3297C0.25 11.6987 0.5338 12.135 0.902984 12.308L0.796875 12.5344C1.00779 12.6328 1.0125 12.6328 7.88705 12.6469L0.999785 10.2883Z" fill="#153356" stroke="#FAFAFA" stroke-width="0.5"/>
<path d="M10.3482 17.75C10.201 16.9472 10.2586 16.2271 10.5379 15.592C10.5359 15.592 10.5339 15.5919 10.5319 15.5919C10.2836 15.5891 9.92388 15.5866 9.47932 15.5845C8.5904 15.5804 7.36389 15.5781 6.01415 15.5781C4.00993 15.5804 2.77521 15.584 2.02342 15.5933C1.6471 15.598 1.39478 15.6041 1.22854 15.6121C1.14523 15.6161 1.08681 15.6204 1.0468 15.6248C1.01748 15.628 1.00475 15.6306 1.00242 15.631C0.338229 15.8741 0.0646442 16.6 0.395523 17.1875C0.458767 17.2979 0.587307 17.4502 0.659537 17.5036L0.659557 17.5036L0.662802 17.5061C0.680626 17.5197 0.696278 17.5318 0.710276 17.5426C0.78572 17.601 0.813126 17.6222 0.87379 17.6438C0.955001 17.6727 1.09776 17.6992 1.42057 17.7169C2.02436 17.7502 3.16202 17.7501 5.48017 17.75C5.62239 17.75 5.76906 17.75 5.92031 17.75H10.3482Z" fill="#153356" stroke="#FAFAFA" stroke-width="0.5"/>
</svg>
