<svg width="26" height="26" viewBox="0 0 26 26" fill="none" xmlns="http://www.w3.org/2000/svg">
<circle cx="13" cy="13" r="12.5" fill="white" stroke="#DA3232"/>
<g clip-path="url(#clip0_765_176)">
<path d="M8.32676 18.6883C8.37871 19.5059 8.92012 20.0008 9.74863 20.0008H16.1908C17.1342 20.0008 17.6318 19.5168 17.6893 18.5789C17.8424 16.0523 18.2143 9.8918 18.2416 9.38867H7.77441C7.77441 9.49805 8.14082 15.7297 8.32676 18.6883Z" fill="#DA3232"/>
<path d="M18.2308 6.89961C17.4897 6.89414 16.7515 6.88867 16.0132 6.90234C15.9694 6.39375 15.5429 6 15.0315 6H10.9683C10.4569 6 10.0304 6.39375 9.98935 6.90234C9.22919 6.88867 8.4663 6.89414 7.70614 6.89961C7.30693 6.90508 7.01708 7.12656 6.92138 7.47656C6.75458 8.08633 7.12372 8.58945 7.75536 8.59219C9.5081 8.59766 11.2581 8.59492 13.0081 8.59492H18.2253C18.7913 8.59492 19.1167 8.27773 19.1194 7.75C19.1222 7.22227 18.794 6.90234 18.2308 6.89961Z" fill="#DA3232"/>
</g>
<defs>
<clipPath id="clip0_765_176">
<rect width="14" height="14" fill="white" transform="translate(6 6)"/>
</clipPath>
</defs>
</svg>
