<svg width="24" height="24" viewBox="0 0 24 24" fill="none" xmlns="http://www.w3.org/2000/svg">
<mask id="mask0_502_646" style="mask-type:alpha" maskUnits="userSpaceOnUse" x="0" y="0" width="24" height="24">
<rect width="24" height="24" fill="#D9D9D9"/>
</mask>
<g mask="url(#mask0_502_646)">
<path d="M12 13.2826C13.0043 13.2826 13.8576 12.9315 14.5598 12.2293C15.2619 11.5272 15.613 10.6739 15.613 9.66956C15.613 8.66521 15.2619 7.8143 14.5598 7.11683C13.8576 6.41937 13.0043 6.07063 12 6.07063C10.9956 6.07063 10.1424 6.41937 9.44021 7.11683C8.73802 7.8143 8.38693 8.66521 8.38693 9.66956C8.38693 10.6739 8.73802 11.5272 9.44021 12.2293C10.1424 12.9315 10.9956 13.2826 12 13.2826ZM5.16956 21.4804C4.43114 21.4804 3.80486 21.2234 3.29073 20.7092C2.7766 20.1951 2.51953 19.5688 2.51953 18.8304V5.16956C2.51953 4.43114 2.7766 3.80487 3.29073 3.29073C3.80486 2.7766 4.43114 2.51953 5.16956 2.51953H18.8304C19.5688 2.51953 20.1951 2.7766 20.7092 3.29073C21.2234 3.80487 21.4804 4.43114 21.4804 5.16956V18.8304C21.4804 19.5688 21.2234 20.1951 20.7092 20.7092C20.1951 21.2234 19.5688 21.4804 18.8304 21.4804H5.16956ZM5.16956 18.8304H18.8304V17.3695C17.9304 16.5333 16.9128 15.8869 15.7777 15.4304C14.6426 14.9739 13.3833 14.7456 12 14.7456C10.6166 14.7456 9.35741 14.9786 8.22226 15.4445C7.08712 15.9105 6.06956 16.5615 5.16956 17.3978V18.8304Z" fill="#757575"/>
</g>
</svg>
