<svg width="24" height="24" viewBox="0 0 24 24" fill="none" xmlns="http://www.w3.org/2000/svg">
<path d="M16.4354 10.0859H15.6992V11.5584H16.4354C16.6307 11.5584 16.818 11.4808 16.956 11.3428C17.0941 11.2047 17.1717 11.0174 17.1717 10.8222C17.1717 10.6269 17.0941 10.4396 16.956 10.3016C16.818 10.1635 16.6307 10.0859 16.4354 10.0859Z" fill="#A9A9A9"/>
<path d="M18.7913 3.3125H5.83369C5.24813 3.31323 4.68677 3.54617 4.27272 3.96022C3.85867 4.37427 3.62573 4.93563 3.625 5.52119V18.4788C3.62573 19.0644 3.85867 19.6257 4.27272 20.0398C4.68677 20.4538 5.24813 20.6868 5.83369 20.6875H18.7913C19.3769 20.6868 19.9382 20.4538 20.3523 20.0398C20.7663 19.6257 20.9993 19.0644 21 18.4788V5.52119C20.9993 4.93563 20.7663 4.37427 20.3523 3.96022C19.9382 3.54617 19.3769 3.31323 18.7913 3.3125ZM9.36758 14.7977H7.01165C6.93638 14.7977 6.86237 14.7784 6.79663 14.7418C6.73089 14.7051 6.6756 14.6523 6.63601 14.5883C6.59643 14.5242 6.57386 14.4512 6.57044 14.376C6.56703 14.3008 6.58288 14.226 6.6165 14.1586L8.65262 10.0858H7.01165C6.8945 10.0858 6.78214 10.0393 6.6993 9.95642C6.61646 9.87358 6.56992 9.76122 6.56992 9.64407C6.56992 9.52691 6.61646 9.41455 6.6993 9.33171C6.78214 9.24887 6.8945 9.20233 7.01165 9.20233H9.36758C9.44285 9.20234 9.51687 9.22159 9.58261 9.25824C9.64835 9.29489 9.70364 9.34773 9.74322 9.41175C9.78281 9.47577 9.80538 9.54884 9.80879 9.62403C9.81221 9.69922 9.79635 9.77403 9.76273 9.84138L7.72662 13.9142H9.36758C9.48474 13.9142 9.5971 13.9607 9.67994 14.0436C9.76278 14.1264 9.80932 14.2388 9.80932 14.3559C9.80932 14.4731 9.76278 14.5854 9.67994 14.6683C9.5971 14.7511 9.48474 14.7977 9.36758 14.7977ZM12.7542 14.3559C12.7542 14.4731 12.7077 14.5854 12.6249 14.6683C12.542 14.7511 12.4297 14.7977 12.3125 14.7977C12.1953 14.7977 12.083 14.7511 12.0001 14.6683C11.9173 14.5854 11.8708 14.4731 11.8708 14.3559V9.64407C11.8708 9.52691 11.9173 9.41455 12.0001 9.33171C12.083 9.24887 12.1953 9.20233 12.3125 9.20233C12.4297 9.20233 12.542 9.24887 12.6249 9.33171C12.7077 9.41455 12.7542 9.52691 12.7542 9.64407V14.3559ZM16.4354 12.4417H15.6992V14.3559C15.6992 14.4731 15.6526 14.5854 15.5698 14.6683C15.4869 14.7511 15.3746 14.7977 15.2574 14.7977C15.1403 14.7977 15.0279 14.7511 14.9451 14.6683C14.8622 14.5854 14.8157 14.4731 14.8157 14.3559V9.64407C14.8157 9.52691 14.8622 9.41455 14.9451 9.33171C15.0279 9.24887 15.1403 9.20233 15.2574 9.20233H16.4354C16.865 9.20233 17.2769 9.37298 17.5807 9.67673C17.8844 9.98048 18.0551 10.3925 18.0551 10.822C18.0551 11.2516 17.8844 11.6636 17.5807 11.9673C17.2769 12.2711 16.865 12.4417 16.4354 12.4417Z" fill="#A9A9A9"/>
</svg>
